<svg viewBox="0 0 100 100" xmlns="http://www.w3.org/2000/svg">
  <defs>
    <linearGradient id="ci-bg" x1="0%" y1="0%" x2="100%" y2="100%">
      <stop offset="0%" stop-color="#3D4E6A"/>
      <stop offset="100%" stop-color="#324158"/>
    </linearGradient>
  </defs>
  <!-- Background -->
  <circle cx="50" cy="50" r="50" fill="url(#ci-bg)"/>
  <!-- Connection lines (behind circles) -->
  <line x1="32" y1="35" x2="50" y2="62" stroke="#FBF2E9" stroke-width="1.5" opacity="0.3"/>
  <line x1="68" y1="35" x2="50" y2="62" stroke="#FBF2E9" stroke-width="1.5" opacity="0.3"/>
  <line x1="32" y1="35" x2="68" y2="35" stroke="#FBF2E9" stroke-width="1.5" opacity="0.3"/>
  <!-- Top-left circle (sage) -->
  <circle cx="32" cy="35" r="18" fill="#7A9E99" opacity="0.85"/>
  <circle cx="32" cy="35" r="18" fill="none" stroke="#FBF2E9" stroke-width="2" opacity="0.3"/>
  <circle cx="32" cy="35" r="10" fill="none" stroke="#FBF2E9" stroke-width="1" opacity="0.4"/>
  <ellipse cx="26" cy="30" rx="5" ry="4" fill="#FBF2E9" opacity="0.3"/>
  <!-- Top-right circle (dusty rose) -->
  <circle cx="68" cy="35" r="15" fill="#D8A8A0" opacity="0.85"/>
  <circle cx="68" cy="35" r="15" fill="none" stroke="#FBF2E9" stroke-width="2" opacity="0.3"/>
  <circle cx="68" cy="35" r="8" fill="none" stroke="#FBF2E9" stroke-width="1" opacity="0.4"/>
  <ellipse cx="63" cy="31" rx="4" ry="3" fill="#FBF2E9" opacity="0.3"/>
  <!-- Bottom center circle (cream, largest) -->
  <circle cx="50" cy="65" r="22" fill="#FBF2E9" opacity="0.92"/>
  <circle cx="50" cy="65" r="22" fill="none" stroke="#7A9E99" stroke-width="2" opacity="0.4"/>
  <circle cx="50" cy="65" r="14" fill="none" stroke="#7A9E99" stroke-width="1" opacity="0.3"/>
  <circle cx="50" cy="65" r="6" fill="#D8A8A0" opacity="0.4"/>
  <ellipse cx="42" cy="58" rx="6" ry="5" fill="#FBF2E9" opacity="0.4"/>
  <!-- Small decorative dots -->
  <circle cx="15" cy="20" r="3" fill="#7A9E99" opacity="0.4"/>
  <circle cx="85" cy="75" r="3" fill="#D8A8A0" opacity="0.4"/>
  <circle cx="20" cy="80" r="2" fill="#FBF2E9" opacity="0.3"/>
  <circle cx="80" cy="20" r="2" fill="#FBF2E9" opacity="0.3"/>
</svg>
