<svg viewBox="0 0 100 100" xmlns="http://www.w3.org/2000/svg">
  <defs>
    <linearGradient id="hc-bg" x1="0%" y1="0%" x2="100%" y2="100%">
      <stop offset="0%" stop-color="#E0B5AC"/>
      <stop offset="100%" stop-color="#D8A8A0"/>
    </linearGradient>
  </defs>
  <!-- Background -->
  <circle cx="50" cy="50" r="50" fill="url(#hc-bg)"/>
  <!-- Outer heart ring -->
  <path d="M50 78 C30 62 18 48 28 35 C35 27 45 29 50 38
           C55 29 65 27 72 35 C82 48 70 62 50 78 Z"
        fill="none" stroke="#FBF2E9" stroke-width="3" opacity="0.4"/>
  <!-- Main heart -->
  <path d="M50 70 C34 56 24 45 32 35 C38 28 46 30 50 38
           C54 30 62 28 68 35 C76 45 66 56 50 70 Z"
        fill="#FBF2E9"/>
  <!-- Inner heart detail -->
  <path d="M50 60 C40 52 34 45 40 38 C44 34 48 35 50 40
           C52 35 56 34 60 38 C66 45 60 52 50 60 Z"
        fill="#BC6547" opacity="0.6"/>
  <!-- Shine highlight -->
  <ellipse cx="38" cy="40" rx="5" ry="4" fill="#FBF2E9" opacity="0.4"/>
  <!-- Small decorative hearts -->
  <path d="M22 30 C20 28 18 26 20 24 C21.5 22 23.5 23 24 25 C24.5 23 26.5 22 28 24 C30 26 28 28 24 32 Z"
        fill="#FBF2E9" opacity="0.5"/>
  <path d="M76 70 C74 68 72 66 74 64 C75.5 62 77.5 63 78 65 C78.5 63 80.5 62 82 64 C84 66 82 68 78 72 Z"
        fill="#FBF2E9" opacity="0.5"/>
</svg>
