<svg viewBox="0 0 100 100" xmlns="http://www.w3.org/2000/svg">
  <defs>
    <linearGradient id="st-bg" x1="0%" y1="0%" x2="100%" y2="100%">
      <stop offset="0%" stop-color="#E0B5AC"/>
      <stop offset="100%" stop-color="#D8A8A0"/>
    </linearGradient>
    <linearGradient id="st-star" x1="0%" y1="0%" x2="100%" y2="100%">
      <stop offset="0%" stop-color="#FDF5EF"/>
      <stop offset="100%" stop-color="#FBF2E9"/>
    </linearGradient>
  </defs>
  <!-- Background -->
  <circle cx="50" cy="50" r="50" fill="url(#st-bg)"/>
  <!-- Outer glow ring -->
  <circle cx="50" cy="50" r="38" fill="none" stroke="#FBF2E9" stroke-width="1" opacity="0.3"/>
  <!-- Main star -->
  <polygon points="50,12 58,36 84,36 64,52 72,78 50,62 28,78 36,52 16,36 42,36"
           fill="url(#st-star)"/>
  <!-- Inner star detail -->
  <polygon points="50,24 54,40 70,40 58,50 62,66 50,56 38,66 42,50 30,40 46,40"
           fill="#D8A8A0" opacity="0.4"/>
  <!-- Center circle -->
  <circle cx="50" cy="46" r="6" fill="#BC6547" opacity="0.5"/>
  <!-- Highlight -->
  <ellipse cx="42" cy="34" rx="6" ry="4" fill="#FBF2E9" opacity="0.5"/>
  <!-- Sparkles around -->
  <g fill="#FBF2E9" opacity="0.6">
    <path d="M20 20 L22 24 L20 28 L18 24 Z"/>
    <path d="M80 25 L82 28 L80 31 L78 28 Z"/>
    <path d="M15 55 L17 58 L15 61 L13 58 Z"/>
    <path d="M85 60 L87 63 L85 66 L83 63 Z"/>
    <path d="M30 85 L31 87 L30 89 L29 87 Z"/>
    <path d="M70 82 L71 84 L70 86 L69 84 Z"/>
  </g>
  <!-- Small stars -->
  <polygon points="22,70 24,74 28,74 25,77 26,81 22,78 18,81 19,77 16,74 20,74"
           fill="#FBF2E9" opacity="0.4" transform="scale(0.5) translate(24, 100)"/>
  <polygon points="78,18 79,21 82,21 80,23 81,26 78,24 75,26 76,23 74,21 77,21"
           fill="#FBF2E9" opacity="0.4"/>
</svg>
